# xmcd CD database file
#
# Track frame offsets:
#	225
#	6951
#	16104
#	24899
#	35759
#	45945
#	55346
#	65307
#	73515
#	86131
#	98581
#	110796
#	120239
#	136468
#	149020
#	157584
#	170027
#	181826
#
# Disc length: 2661 seconds
#
# Revision: 0
# Processed by: cddbd v1.4PL0 Copyright (c) Steve Scherf et al.
# Submitted via: Feurio! 1.65 - http://www.feurio.com
#
DISCID=e70a6212
DTITLE=Johnny Cash - Johnny Cash - 2
DYEAR=1900
DGENRE=country
TTITLE0=Hey, Good Lookin'
TTITLE1=Blue Train
TTITLE2=Katy Too
TTITLE3=Fools Hall Of Fame
TTITLE4=The Ways Of A Woman In Love
TTITLE5=Down The Street To 301
TTITLE6=Hey Porter
TTITLE7=Wreck Of Old '97
TTITLE8=The One On The Right Is On The Left
TTITLE9=Next In Line
TTITLE10=Give My Love To Rose
TTITLE11=Luther Played The Boogie
TTITLE12=City Of New Orleans
TTITLE13=Ring Of Fire
TTITLE14=I Got Stripes
TTITLE15=Long Black Veil
TTITLE16=The Highway Man
TTITLE17=Orange Blossom Special
EXTD=Heinz
EXTT0=
EXTT1=
EXTT2=
EXTT3=
EXTT4=
EXTT5=
EXTT6=
EXTT7=
EXTT8=
EXTT9=
EXTT10=
EXTT11=
EXTT12=
EXTT13=
EXTT14=
EXTT15=
EXTT16=
EXTT17=
PLAYORDER=
